<svg width="18" height="18" viewBox="0 0 18 18" fill="none" xmlns="http://www.w3.org/2000/svg">
<path d="M9.35856 2.83729C9.2531 2.7764 9.13348 2.74435 9.0117 2.74435C8.88993 2.74435 8.7703 2.7764 8.66484 2.83729L3.46191 5.84111V14.4592H6.58367V10.2969C6.58367 10.1129 6.65676 9.93646 6.78686 9.80636C6.91695 9.67626 7.0934 9.60318 7.27739 9.60318H10.746C10.93 9.60318 11.1064 9.67626 11.2365 9.80636C11.3666 9.93646 11.4397 10.1129 11.4397 10.2969V14.4592H14.5615V5.84111L9.35856 2.83729ZM7.97112 1.63576C8.28749 1.4531 8.64638 1.35693 9.0117 1.35693C9.37702 1.35693 9.73591 1.4531 10.0523 1.63576L15.2552 4.63958C15.4661 4.76135 15.6413 4.9365 15.763 5.14741C15.8848 5.35832 15.9489 5.59757 15.9489 5.84111V15.153C15.9489 15.337 15.8759 15.5134 15.7458 15.6435C15.6157 15.7736 15.4392 15.8467 15.2552 15.8467H10.746C10.562 15.8467 10.3856 15.7736 10.2555 15.6435C10.1254 15.5134 10.0523 15.337 10.0523 15.153V10.9906H7.97112V15.153C7.97112 15.337 7.89803 15.5134 7.76793 15.6435C7.63783 15.7736 7.46138 15.8467 7.27739 15.8467H2.76819C2.5842 15.8467 2.40775 15.7736 2.27765 15.6435C2.14755 15.5134 2.07446 15.337 2.07446 15.153V5.84111C2.07447 5.59757 2.13858 5.35832 2.26035 5.14741C2.38213 4.9365 2.55727 4.76135 2.76819 4.63958L7.97112 1.63576Z" fill="#fff"/>
</svg>
