<svg width="22" height="21" viewBox="0 0 22 21" fill="none" xmlns="http://www.w3.org/2000/svg">
<path d="M15.869 0.88916C13.773 0.88916 11.982 2.38316 10.998 3.41316C10.014 2.38316 8.227 0.88916 6.132 0.88916C2.521 0.88916 0 3.40616 0 7.00916C0 10.9792 3.131 13.5452 6.16 16.0272C7.59 17.2002 9.07 18.4122 10.205 19.7562C10.396 19.9812 10.676 20.1112 10.97 20.1112H11.028C11.323 20.1112 11.602 19.9802 11.792 19.7562C12.929 18.4122 14.408 17.1992 15.839 16.0272C18.867 13.5462 22 10.9802 22 7.00916C22 3.40616 19.479 0.88916 15.869 0.88916Z" fill="black"/>
</svg>
