<svg width="183" height="64" viewBox="0 0 183 64" fill="none" xmlns="http://www.w3.org/2000/svg">
<path d="M64 0.00802122C64 0.00802122 39.552 -1.17583 20.288 25.2209C5.504 45.4743 0 64 0 64L6.208 60.8004C10.816 52.8014 13.216 49.5058 17.728 44.8024C25.824 47.1701 34.272 46.8821 41.6 38.4032C35.2 36.6114 30.08 37.0274 22.528 37.7953C31.008 32.004 36.8 30.7242 44.8 32.004L48 25.6048C42.24 24.517 38.4 24.421 32.704 25.7328C39.008 21.2854 43.392 18.7897 51.2 19.2056L55.072 13.0304C50.08 12.6784 47.072 13.2224 41.344 14.6302C46.496 9.95877 51.2 7.84704 58.048 7.43109C58.048 7.43109 61.408 1.38385 64 0.00802122Z" fill="#D2AE96"/>
<path d="M98.593 42.845H87.546L87.05 36.9493H86.398L85.933 42.845H75.041L72 21.4033H81.465L82.271 31.5811H82.923L83.668 21.9308H89.936L90.774 31.5811H91.456L92.232 21.4033H101.572L98.593 42.845ZM102.92 42.845V21.4033H113.594V42.845H102.92ZM115.405 38.2836V19.7276H124.714V34.8703H125.365V42.5037C124.269 42.9381 122.738 43.1553 120.773 43.1553C118.828 43.1553 117.442 42.7519 116.615 41.9451C115.808 41.1383 115.405 39.9178 115.405 38.2836ZM126.738 38.2836V19.7276H136.047V34.8703H136.699V42.5037C135.602 42.9381 134.071 43.1553 132.106 43.1553C130.162 43.1553 128.776 42.7519 127.948 41.9451C127.141 41.1383 126.738 39.9178 126.738 38.2836ZM142.664 26.0267C141.092 26.0267 139.933 25.7164 139.188 25.0958C138.444 24.4752 138.071 23.4823 138.071 22.117C138.071 20.7516 138.444 19.769 139.188 19.1691C139.954 18.5692 141.112 18.2692 142.664 18.2692C145.767 18.2692 147.318 19.5208 147.318 22.0239C147.318 23.4512 146.936 24.4752 146.17 25.0958C145.405 25.7164 144.236 26.0267 142.664 26.0267ZM138.071 42.845V26.7404H147.318V42.845H138.071ZM149.566 24.9097C149.566 21.124 151.759 19.2312 156.145 19.2312C157.303 19.2312 158.327 19.3036 159.217 19.4484C160.127 19.5725 160.747 19.6966 161.078 19.8207L161.544 20.0069V26.2129H158.255V27.5782H161.544V35.9563H159.31V42.845H150.094V35.9563H148.884V28.2919L150.28 27.5782C149.804 26.8956 149.566 26.0061 149.566 24.9097ZM172.342 35.615H173.149L173.708 24.5063H182.334L179.603 45.7308H169.798L170.481 42.5347C168.702 42.5347 167.398 42.2658 166.571 41.7279C165.764 41.1694 165.257 40.2281 165.05 38.9042L162.878 24.5063H171.722L172.342 35.615Z" fill="#D2AE96"/>
</svg>
