<svg width="20" height="20" viewBox="0 0 20 20" fill="none" xmlns="http://www.w3.org/2000/svg">
<path d="M20 0.00125573C20 0.00125573 12.36 -0.368744 6.34 7.88126C1.72 14.2113 0 20.0013 0 20.0013L1.94 19.0013C3.38 16.5013 4.13 15.4713 5.54 14.0013C8.07 14.7413 10.71 14.6513 13 12.0013C11 11.4413 9.4 11.5713 7.04 11.8113C9.69 10.0013 11.5 9.60126 14 10.0013L15 8.00126C13.2 7.66126 12 7.63126 10.22 8.04126C12.19 6.65126 13.56 5.87126 16 6.00126L17.21 4.07126C15.65 3.96126 14.71 4.13126 12.92 4.57126C14.53 3.11126 16 2.45126 18.14 2.32126C18.14 2.32126 19.19 0.431256 20 0.00125573Z" fill="#d2ae96"/>
</svg>
