<svg width="18" height="20" viewBox="0 0 18 20" fill="none" xmlns="http://www.w3.org/2000/svg">
<path d="M0.88501 19.0599C0.686903 19.0574 0.497638 18.9775 0.357544 18.8374C0.217449 18.6973 0.1376 18.508 0.13501 18.3099V1.68994C0.13501 1.49103 0.214027 1.30026 0.35468 1.15961C0.495332 1.01896 0.686097 0.939941 0.88501 0.939941C1.08392 0.939941 1.27469 1.01896 1.41534 1.15961C1.55599 1.30026 1.63501 1.49103 1.63501 1.68994V18.2899C1.63768 18.3901 1.62026 18.4898 1.58376 18.5831C1.54727 18.6764 1.49245 18.7615 1.42254 18.8332C1.35263 18.905 1.26904 18.9621 1.17672 19.001C1.0844 19.0399 0.985207 19.06 0.88501 19.0599ZM17.865 3.34694V16.5969C17.8557 16.9946 17.7456 17.3834 17.545 17.7269C17.3495 18.0536 17.0725 18.3239 16.7413 18.5114C16.41 18.699 16.0357 18.7974 15.655 18.7969H15.555C15.1583 18.7848 14.7733 18.6599 14.445 18.4369L5.31501 12.3169C5.02224 12.1225 4.77907 11.8622 4.60501 11.5569C4.43982 11.2486 4.34745 10.9065 4.33501 10.5569C4.32168 10.2125 4.39022 9.86977 4.53501 9.55694C4.68173 9.2404 4.90099 8.9629 5.17501 8.74694L14.315 1.65694C14.6435 1.40825 15.0348 1.2559 15.445 1.21694C15.8539 1.17474 16.2664 1.24792 16.6358 1.42821C17.0052 1.60849 17.3167 1.88865 17.535 2.23694C17.739 2.57194 17.853 2.95494 17.865 3.34694Z" fill="white"/>
</svg>
