<svg width="48" height="48" viewBox="0 0 48 48" fill="none" xmlns="http://www.w3.org/2000/svg">
<path d="M3.74994 23.9999C3.75391 20.2218 5.25652 16.5996 7.92806 13.928C10.5996 11.2565 14.2218 9.75389 17.9999 9.74992H36.5624L35.9024 9.09179C35.6931 8.8825 35.5271 8.63403 35.4139 8.36057C35.3006 8.08712 35.2423 7.79403 35.2423 7.49804C35.2423 7.20206 35.3006 6.90897 35.4139 6.63551C35.5271 6.36206 35.6931 6.11359 35.9024 5.90429C36.1117 5.695 36.3602 5.52898 36.6337 5.41571C36.9071 5.30244 37.2002 5.24414 37.4962 5.24414C37.7922 5.24414 38.0853 5.30244 38.3587 5.41571C38.6322 5.52898 38.8806 5.695 39.0899 5.90429L43.5899 10.4043C43.7997 10.6133 43.9661 10.8617 44.0797 11.1352C44.1933 11.4087 44.2517 11.7019 44.2517 11.998C44.2517 12.2942 44.1933 12.5874 44.0797 12.8609C43.9661 13.1344 43.7997 13.3828 43.5899 13.5918L39.0899 18.0918C38.6673 18.5145 38.094 18.7519 37.4962 18.7519C36.8984 18.7519 36.3251 18.5145 35.9024 18.0918C35.4798 17.6691 35.2423 17.0958 35.2423 16.498C35.2423 15.9003 35.4798 15.327 35.9024 14.9043L36.5624 14.2499H17.9999C15.415 14.2529 12.9368 15.2811 11.1089 17.1089C9.28111 18.9368 8.25292 21.415 8.24994 23.9999C8.24994 24.5967 8.01289 25.169 7.59093 25.5909C7.16898 26.0129 6.59668 26.2499 5.99994 26.2499C5.40321 26.2499 4.83091 26.0129 4.40895 25.5909C3.987 25.169 3.74994 24.5967 3.74994 23.9999ZM41.9999 21.7499C41.4032 21.7499 40.8309 21.987 40.409 22.4089C39.987 22.8309 39.7499 23.4032 39.7499 23.9999C39.747 26.5849 38.7188 29.0631 36.8909 30.8909C35.0631 32.7188 32.5849 33.7469 29.9999 33.7499H11.4374L12.0974 33.0918C12.3067 32.8825 12.4728 32.634 12.586 32.3606C12.6993 32.0871 12.7576 31.794 12.7576 31.498C12.7576 31.2021 12.6993 30.909 12.586 30.6355C12.4728 30.3621 12.3067 30.1136 12.0974 29.9043C11.8881 29.695 11.6397 29.529 11.3662 29.4157C11.0928 29.3024 10.7997 29.2441 10.5037 29.2441C10.2077 29.2441 9.91462 29.3024 9.64116 29.4157C9.36771 29.529 9.11924 29.695 8.90994 29.9043L4.40994 34.4043C4.20018 34.6133 4.03375 34.8617 3.92019 35.1352C3.80663 35.4087 3.74817 35.7019 3.74817 35.998C3.74817 36.2942 3.80663 36.5874 3.92019 36.8609C4.03375 37.1344 4.20018 37.3828 4.40994 37.5918L8.90994 42.0918C9.11924 42.3011 9.36771 42.4671 9.64116 42.5804C9.91462 42.6936 10.2077 42.7519 10.5037 42.7519C10.7997 42.7519 11.0928 42.6936 11.3662 42.5804C11.6397 42.4671 11.8881 42.3011 12.0974 42.0918C12.3067 41.8825 12.4728 41.634 12.586 41.3606C12.6993 41.0871 12.7576 40.794 12.7576 40.498C12.7576 40.2021 12.6993 39.909 12.586 39.6355C12.4728 39.3621 12.3067 39.1136 12.0974 38.9043L11.4374 38.2499H29.9999C33.7781 38.2459 37.4003 36.7433 40.0718 34.0718C42.7434 31.4003 44.246 27.778 44.2499 23.9999C44.2499 23.4032 44.0129 22.8309 43.5909 22.4089C43.169 21.987 42.5967 21.7499 41.9999 21.7499Z" fill="white"/>
</svg>
