<svg width="20" height="19" viewBox="0 0 20 19" fill="none" xmlns="http://www.w3.org/2000/svg">
<g clip-path="url(#clip0_3_5268)">
<path d="M8.87248 1.06645C4.84156 1.06645 1.55225 4.28807 1.55225 8.28708C1.55225 12.2861 4.84079 15.5077 8.87248 15.5077C10.6109 15.5077 12.2108 14.9085 13.4691 13.9062L16.8565 17.2936C16.9283 17.3679 17.0141 17.4272 17.1091 17.468C17.204 17.5088 17.3061 17.5302 17.4094 17.5311C17.5128 17.532 17.6152 17.5123 17.7109 17.4732C17.8065 17.4341 17.8934 17.3763 17.9665 17.3032C18.0395 17.2302 18.0973 17.1433 18.1364 17.0477C18.1756 16.952 18.1952 16.8496 18.1943 16.7462C18.1935 16.6429 18.172 16.5408 18.1312 16.4459C18.0904 16.3509 18.0311 16.265 17.9568 16.1933L14.5765 12.8129C15.623 11.537 16.1943 9.93733 16.1927 8.28708C16.1927 4.28729 12.9042 1.06567 8.87248 1.06567V1.06645ZM3.10858 8.28708C3.10858 5.16973 5.67809 2.62201 8.87248 2.62201C12.0669 2.62201 14.6364 5.16973 14.6364 8.28708C14.6364 11.4044 12.0669 13.9514 8.87248 13.9514C5.67809 13.9514 3.10858 11.4052 3.10858 8.28708Z" fill="white" fill-opacity="1"/>
</g>
<defs>
<clipPath id="clip0_3_5268">
<rect width="18.676" height="18.676" fill="white" transform="translate(0.676025 0.0712891)"/>
</clipPath>
</defs>
</svg>
