<svg width="225" height="186" viewBox="0 0 225 186" fill="none" xmlns="http://www.w3.org/2000/svg">
<path d="M220.49 140.51C221.609 141.625 222.496 142.95 223.102 144.408C223.708 145.867 224.019 147.431 224.019 149.01C224.019 150.589 223.708 152.153 223.102 153.612C222.496 155.071 221.609 156.395 220.49 157.51L196.49 181.51C194.236 183.764 191.178 185.031 187.99 185.031C184.802 185.031 181.744 183.764 179.49 181.51C177.236 179.256 175.969 176.198 175.969 173.01C175.969 169.822 177.236 166.764 179.49 164.51L183 161H180.91C168.814 160.987 156.895 158.093 146.139 152.558C135.384 147.023 126.101 139.006 119.06 129.17L77.38 70.7801C72.5632 64.0491 66.212 58.5626 58.8525 54.775C51.493 50.9875 43.337 49.0078 35.06 49.0001H12C8.8174 49.0001 5.76516 47.7358 3.51472 45.4854C1.26428 43.2349 0 40.1827 0 37.0001C0 33.8175 1.26428 30.7652 3.51472 28.5148C5.76516 26.2644 8.8174 25.0001 12 25.0001H35.06C47.1561 25.0134 59.0752 27.9074 69.8306 33.4425C80.5861 38.9776 89.8686 46.9946 96.91 56.8301L138.62 115.22C143.437 121.951 149.788 127.438 157.148 131.225C164.507 135.013 172.663 136.992 180.94 137H183L179.48 133.49C177.226 131.236 175.959 128.178 175.959 124.99C175.959 121.802 177.226 118.744 179.48 116.49C181.734 114.236 184.792 112.969 187.98 112.969C191.168 112.969 194.226 114.236 196.48 116.49L220.49 140.51ZM124.87 67.8901C127.265 69.9848 130.394 71.0425 133.569 70.8306C136.744 70.6186 139.704 69.1545 141.8 66.7601C146.681 61.181 152.699 56.71 159.449 53.6469C166.2 50.5839 173.527 48.9995 180.94 49.0001H183L179.48 52.5101C177.226 54.7644 175.959 57.822 175.959 61.0101C175.959 64.1982 177.226 67.2557 179.48 69.5101C181.734 71.7644 184.792 73.0309 187.98 73.0309C191.168 73.0309 194.226 71.7644 196.48 69.5101L220.48 45.5101C221.599 44.3952 222.486 43.0705 223.092 41.6119C223.698 40.1533 224.009 38.5894 224.009 37.0101C224.009 35.4307 223.698 33.8669 223.092 32.4083C222.486 30.9496 221.599 29.6249 220.48 28.5101L196.48 4.51007C194.226 2.25573 191.168 0.989258 187.98 0.989258C184.792 0.989258 181.734 2.25573 179.48 4.51007C177.226 6.76441 175.959 9.82195 175.959 13.0101C175.959 16.1982 177.226 19.2557 179.48 21.5101L183 25.0001H180.91C170.073 25.0053 159.363 27.3279 149.497 31.8122C139.632 36.2965 130.839 42.8388 123.71 51.0001C121.631 53.3969 120.586 56.5193 120.804 59.6845C121.021 62.8497 122.483 65.7999 124.87 67.8901ZM91.13 118.11C88.7349 116.015 85.6058 114.958 82.431 115.17C79.2562 115.382 76.2955 116.846 74.2 119.24C69.3189 124.819 63.3013 129.29 56.5508 132.353C49.8003 135.416 42.4729 137.001 35.06 137H12C8.8174 137 5.76516 138.264 3.51472 140.515C1.26428 142.765 0 145.817 0 149C0 152.183 1.26428 155.235 3.51472 157.485C5.76516 159.736 8.8174 161 12 161H35.06C45.8968 160.995 56.6072 158.672 66.4727 154.188C76.3381 149.704 85.1305 143.161 92.26 135C94.3423 132.607 95.3923 129.487 95.1806 126.322C94.9688 123.157 93.5125 120.204 91.13 118.11Z" fill="white"/>
</svg>
